<svg width="32" height="23" viewBox="0 0 32 23" fill="none" xmlns="http://www.w3.org/2000/svg">
<path d="M29.6341 21.1817H2.34859C1.99092 21.1817 1.6479 21.0306 1.39499 20.7618C1.14208 20.4929 1 20.1282 1 19.748V2.12021C1 1.82311 1.11102 1.53818 1.30864 1.3281C1.50625 1.11802 1.77428 1 2.05375 1H29.9191C30.2057 1 30.4807 1.12107 30.6834 1.33657C30.8861 1.55207 31 1.84435 31 2.14911V19.7296C31 19.9203 30.9647 20.1091 30.896 20.2853C30.8274 20.4614 30.7268 20.6215 30.5999 20.7564C30.4731 20.8912 30.3225 20.9982 30.1568 21.0711C29.9911 21.1441 29.8134 21.1817 29.6341 21.1817V21.1817Z" stroke="#B95C50" stroke-width="2" stroke-miterlimit="10" stroke-linecap="round" stroke-linejoin="round"/>
<path d="M1.46875 1.49831L8.49999 9.47131" stroke="#B95C50" stroke-width="2" stroke-miterlimit="10" stroke-linecap="round"/>
<path d="M30.5312 1.49831L23.5 9.47131" stroke="#B95C50" stroke-width="2" stroke-miterlimit="10" stroke-linecap="round"/>
<path d="M21.1862 10.2447C21.1865 9.59183 20.9817 8.95755 20.6045 8.44235C20.2273 7.92716 19.6992 7.56051 19.1038 7.4005C18.5084 7.24048 17.8797 7.29626 17.3175 7.55899C16.7553 7.82171 16.2917 8.27637 16 8.85091C15.7083 8.27637 15.2447 7.82171 14.6825 7.55899C14.1202 7.29626 13.4916 7.24048 12.8962 7.4005C12.3008 7.56051 11.7727 7.92716 11.3955 8.44235C11.0182 8.95755 10.8135 9.59183 10.8137 10.2447C10.8137 10.9413 11.0434 11.5802 11.425 12.0835L11.4241 12.0845L16 18.113L20.5755 12.0845L20.5745 12.0835C20.9707 11.5632 21.1867 10.914 21.1862 10.2447V10.2447Z" stroke="#B95C50" stroke-width="2" stroke-miterlimit="10" stroke-linejoin="round"/>
</svg>
