<svg width="30" height="29" viewBox="0 0 30 29" fill="none" xmlns="http://www.w3.org/2000/svg">
<path d="M24.7547 8.83945L18.5592 3.98024C16.4206 2.3037 13.3179 2.3037 11.1792 3.98024L4.98366 8.83945C3.58843 9.93337 2.78796 11.5615 2.78796 13.307V20.5498C2.78796 23.7119 5.42849 26.2853 8.67369 26.2853H12.0812V20.5498C12.0812 19.0534 13.3315 17.835 14.8692 17.835C16.4069 17.835 17.6572 19.0534 17.6572 20.5498V26.2853H21.0647C24.3099 26.2853 26.9504 23.7131 26.9504 20.5498V13.307C26.9504 11.5615 26.15 9.93337 24.7547 8.83945ZM25.0918 20.5498C25.0918 22.7123 23.2852 24.4722 21.0647 24.4722H19.5158V20.5498C19.5158 18.0537 17.4317 16.0218 14.8692 16.0218C12.3067 16.0218 10.2226 18.0537 10.2226 20.5498V24.4722H8.67369C6.45323 24.4722 4.64662 22.7123 4.64662 20.5498V13.307C4.64662 12.1139 5.19306 11.0007 6.14717 10.2525L12.3427 5.39328C13.8073 4.24618 15.9311 4.24618 17.3945 5.39328L23.59 10.2525C24.5441 11.0007 25.0905 12.1139 25.0905 13.307V20.5498H25.0918Z" fill="#B95C50"/>
</svg>
