<svg width="31" height="24" viewBox="0 0 31 24" fill="none" xmlns="http://www.w3.org/2000/svg">
<path d="M23.1493 0.333328H7.76736C3.73883 0.333328 0.460938 3.17466 0.460938 6.66666V17.3333C0.460938 17.8307 0.542453 18.308 0.668585 18.772C0.687044 18.8346 0.702424 18.8946 0.734727 18.9546C1.56689 21.6586 4.38949 23.6667 7.76736 23.6667H23.1493C27.1778 23.6667 30.4557 20.8253 30.4557 17.3333V6.66666C30.4557 3.17466 27.1778 0.333328 23.1493 0.333328ZM7.76736 2.33333H23.1493C25.9058 2.33333 28.1484 4.27733 28.1484 6.66666V13.5853L21.9803 8.2386C20.9282 7.3266 19.2161 7.3266 18.1655 8.2386L10.8438 14.5853L9.67473 13.5719C8.62261 12.6599 6.91058 12.6599 5.85999 13.5719L2.76823 16.2519V6.66666C2.76823 4.27733 5.01092 2.33333 7.76736 2.33333ZM23.1493 21.6667H7.76736C5.60928 21.6667 3.78497 20.4693 3.08509 18.8053L7.4905 14.9866C7.68585 14.8173 7.84735 14.8173 8.0427 14.9866L9.48861 16.2401C10.2346 16.8867 11.4498 16.8867 12.1974 16.2401L19.7961 9.65331C19.9468 9.52265 20.1991 9.52265 20.3483 9.65331L28.1469 16.4134V17.3333C28.1484 19.7227 25.9058 21.6667 23.1493 21.6667ZM7.76736 7.99999C7.76736 7.26399 8.45647 6.66666 9.30556 6.66666C10.1546 6.66666 10.8438 7.26399 10.8438 7.99999C10.8438 8.73599 10.1546 9.33333 9.30556 9.33333C8.45647 9.33333 7.76736 8.73599 7.76736 7.99999Z" fill="#B95C50"/>
</svg>
