<svg width="24" height="24" viewBox="0 0 24 24" fill="none" xmlns="http://www.w3.org/2000/svg">
<path d="M7.33333 2.996C7.33404 2.20094 7.65047 1.4387 8.21304 0.876875C8.77561 0.315055 9.53827 -0.000353536 10.3333 2.97384e-07H13.6667C14.4617 -0.000353536 15.2244 0.315055 15.787 0.876875C16.3495 1.4387 16.666 2.20094 16.6667 2.996V5.35467H21C21.7951 5.35431 22.5577 5.66972 23.1203 6.23154C23.6829 6.79336 23.9993 7.5556 24 8.35067V23.0013C23.9996 23.2663 23.8941 23.5203 23.7066 23.7076C23.5191 23.8948 23.265 24 23 24H1C0.734784 24 0.480429 23.8946 0.292893 23.7071C0.105357 23.5196 0 23.2652 0 23V12.3467C0.000175057 11.9529 0.0779111 11.563 0.22877 11.1992C0.379629 10.8355 0.600656 10.505 0.879232 10.2267C1.15781 9.94835 1.48848 9.72762 1.85236 9.57708C2.21624 9.42655 2.60621 9.34916 3 9.34933H7.33333V2.996ZM9.33333 22.004H14.6667V2.996C14.6663 2.73102 14.5608 2.477 14.3733 2.28976C14.1858 2.10251 13.9317 1.99733 13.6667 1.99733H10.3333C10.0681 1.99733 9.81376 2.10269 9.62623 2.29023C9.43869 2.47776 9.33333 2.73212 9.33333 2.99733V22.0027V22.004ZM7.33333 11.3467H3C2.73501 11.3467 2.48086 11.4518 2.29336 11.6391C2.10587 11.8263 2.00035 12.0803 2 12.3453V22.0013H7.33333V11.3467ZM16.6667 22H22V8.352C22 8.08678 21.8946 7.83243 21.7071 7.64489C21.5196 7.45736 21.2652 7.352 21 7.352H16.6667V22.004V22Z" fill="#B95C50"/>
</svg>
