<svg width="29" height="28" viewBox="0 0 29 28" fill="none" xmlns="http://www.w3.org/2000/svg">
<path d="M14.3553 14.8747C17.8188 14.8747 20.6362 12.1272 20.6362 8.74971C20.6362 5.37221 17.8188 2.62471 14.3553 2.62471C10.8918 2.62471 8.07431 5.37221 8.07431 8.74971C8.07431 12.1272 10.8918 14.8747 14.3553 14.8747ZM14.3553 4.37471C16.8294 4.37471 18.8417 6.33704 18.8417 8.74971C18.8417 11.1624 16.8294 13.1247 14.3553 13.1247C11.8812 13.1247 9.86887 11.1624 9.86887 8.74971C9.86887 6.33704 11.8812 4.37471 14.3553 4.37471ZM23.6272 20.9613V22.1407C23.6272 23.2316 23.2192 24.2769 22.4775 25.083C22.3004 25.2767 22.0551 25.3747 21.8087 25.3747C21.5957 25.3747 21.3816 25.3012 21.2105 25.1518C20.8408 24.8298 20.8109 24.2769 21.1411 23.9164C21.5874 23.4299 21.8338 22.7999 21.8338 22.1419V20.9624C21.8338 19.1961 20.6326 17.6677 18.911 17.2465C18.6084 17.1718 18.283 17.2127 18.0186 17.3586C15.7443 18.5929 12.9615 18.5882 10.7015 17.362C10.4311 17.2115 10.1058 17.1684 9.80308 17.2454C8.0815 17.6677 6.8791 19.1961 6.8791 20.9624V22.1419C6.8791 22.801 7.12561 23.431 7.57185 23.9164C7.90205 24.2769 7.87089 24.8298 7.50241 25.1518C7.13154 25.475 6.5645 25.4435 6.2355 25.0842C5.49375 24.2768 5.08578 23.2315 5.08578 22.1419V20.9624C5.08578 18.3934 6.84561 16.1674 9.36517 15.549C10.1105 15.3647 10.9205 15.4698 11.5833 15.8384C13.2941 16.7671 15.4141 16.7705 17.1393 15.8349C17.7937 15.4709 18.6036 15.367 19.3514 15.5502C21.8673 16.165 23.6272 18.3911 23.6272 20.9613Z" fill="#B95C50"/>
</svg>
